<svg xmlns="http://www.w3.org/2000/svg" xmlns:xlink="http://www.w3.org/1999/xlink" width="396" height="116.4295031761816" viewBox="0 0 370 108.78514185653331" class="looka-1j8o68f"><defs id="SvgjsDefs1091"></defs><g id="SvgjsG1092" featurekey="2ou6gm-0" transform="matrix(1.157300353050232,0,0,1.157300353050232,0,0)" fill="#58d5d3"><g xmlns="http://www.w3.org/2000/svg"><rect x="29.502" y="57.497" transform="matrix(-0.9929 0.1188 -0.1188 -0.9929 74.0705 118.5787)" fill="none" width="8" height="8"></rect><path d="M37.946,64.997c-2.599,0.728-5.221,1.259-7.851,1.721l-0.712,0.125l-0.152-0.805c-0.25-1.312-0.429-2.634-0.641-3.951   c-0.19-1.319-0.352-2.644-0.529-3.965l-0.135-1.004l1.009-0.107c1.325-0.143,2.65-0.293,3.978-0.423   c1.33-0.104,2.656-0.243,3.991-0.309l0.821-0.041l0.046,0.723C37.942,59.626,38.043,62.3,37.946,64.997z M37.946,64.997   c-0.729-2.599-1.262-5.222-1.724-7.851l0.867,0.682c-1.313,0.251-2.635,0.427-3.952,0.641c-1.32,0.188-2.644,0.354-3.965,0.526   l0.873-1.11c0.139,1.326,0.294,2.65,0.42,3.979c0.104,1.33,0.242,2.656,0.309,3.99l-0.863-0.679   C32.576,65.004,35.249,64.902,37.946,64.997z"></path></g><g xmlns="http://www.w3.org/2000/svg"><path d="M66.65,75.294c-1.683-0.058-3.348-0.213-5.014-0.36c-1.662-0.166-3.322-0.354-4.976-0.572l-0.753-0.1l0.101-0.828   c0.183-1.49,0.421-2.973,0.628-4.459l0.729-4.439l0.162-0.998l0.994,0.186c1.639,0.307,3.279,0.596,4.914,0.92   c1.633,0.338,3.27,0.662,4.895,1.043l0.768,0.181l-0.152,0.694c-0.321,1.467-0.688,2.926-1.057,4.383   C67.503,72.396,67.113,73.854,66.65,75.294z M66.65,75.294c0.054-1.514,0.181-3.014,0.312-4.514   c0.147-1.496,0.298-2.993,0.493-4.481l0.613,0.874c-1.657-0.192-3.307-0.442-4.957-0.68c-1.647-0.249-3.291-0.534-4.936-0.804   l1.156-0.812l-0.822,4.425c-0.309,1.469-0.587,2.942-0.922,4.406l-0.65-0.928c1.629,0.355,3.254,0.742,4.873,1.15   C63.43,74.357,65.049,74.777,66.65,75.294z"></path></g><g xmlns="http://www.w3.org/2000/svg"><path d="M60.945,87.997c-2.598,0.728-5.221,1.259-7.85,1.721l-0.713,0.125l-0.152-0.805c-0.25-1.312-0.429-2.634-0.641-3.951   c-0.189-1.319-0.352-2.644-0.529-3.965l-0.135-1.004l1.01-0.107c1.324-0.143,2.649-0.293,3.978-0.423   c1.33-0.104,2.655-0.242,3.991-0.309l0.82-0.041l0.047,0.723C60.941,82.626,61.043,85.3,60.945,87.997z M60.945,87.997   c-0.729-2.599-1.262-5.222-1.723-7.851l0.866,0.682c-1.313,0.251-2.635,0.427-3.952,0.641c-1.32,0.188-2.644,0.354-3.965,0.526   l0.873-1.11c0.139,1.326,0.294,2.65,0.42,3.979c0.104,1.33,0.242,2.656,0.309,3.99l-0.862-0.679   C55.576,88.004,58.249,87.902,60.945,87.997z"></path></g><g xmlns="http://www.w3.org/2000/svg"><path d="M36,89c3.273-8.621,6.67-17.191,10-25.79c1.688-4.289,3.472-8.544,5.203-12.818l5.23-12.811   c1.734-4.275,3.496-8.54,5.277-12.795c0.882-2.152,1.794-4.202,2.576-6.358c0.812-2.158,1.638-4.357,2.771-6.467   c1.148-2.073,2.67-4.166,4.94-5.423c0.575-0.286,1.146-0.586,1.776-0.734c0.611-0.222,1.244-0.289,1.877-0.363   c0.183-0.017,0.266-0.046,0.527-0.051l0.434,0.005c0.283,0.008,0.729,0.063,1.05,0.136c0.677,0.141,1.302,0.429,1.88,0.762   c1.143,0.699,2.027,1.649,2.748,2.653c0.73,1.004,1.296,2.081,1.798,3.172c0.976,2.204,1.679,4.44,2.136,6.815l0.185,0.95   l-0.958,0.198L81.2,20.958l-0.902,0.187l-0.243-0.89c-0.531-1.925-1.102-3.886-1.802-5.709c-0.173-0.453-0.372-0.897-0.565-1.243   c-0.035-0.048-0.11-0.182-0.107-0.165c-0.01,0.008,0.121,0.048-0.057-0.04l-0.332-0.188l-0.221-0.08   c-0.656-0.249-1.367-0.131-2.066,0.32c-0.698,0.447-1.336,1.144-1.897,1.906c-0.567,0.763-1.067,1.607-1.53,2.476   c-0.929,1.743-1.694,3.592-2.44,5.476l-4.679,11.285l-4.732,11.242l-9.518,22.464l-9.668,22.399l-0.038,0.088l-0.086-0.029L36,89z    M36,89l4.374,1.264L40.25,90.32l8.91-22.717l9.061-22.655l4.555-11.317l4.588-11.283c0.74-1.9,1.518-3.82,2.488-5.675   c0.487-0.927,1.019-1.843,1.657-2.717c0.64-0.87,1.371-1.723,2.384-2.389c0.512-0.323,1.1-0.593,1.758-0.709   c0.67-0.108,1.343-0.031,1.983,0.192l0.486,0.2l0.333,0.186c0.059,0.016,0.377,0.225,0.541,0.423c0.18,0.198,0.217,0.3,0.328,0.458   c0.309,0.538,0.519,1.027,0.715,1.521c0.77,1.969,1.345,3.916,1.908,5.906l-1.146-0.704l4.245-0.906l-0.774,1.147   c-0.441-2.144-1.082-4.347-1.972-6.359c-0.896-1.986-2.077-3.949-3.749-4.989c-0.418-0.24-0.849-0.447-1.305-0.542   c-0.24-0.047-0.37-0.079-0.658-0.095l-0.434-0.008l-0.33,0.042c-0.512,0.059-1.029,0.102-1.508,0.28   c-0.504,0.106-0.953,0.351-1.414,0.569c-1.805,0.976-3.164,2.745-4.239,4.661c-1.063,1.947-1.886,4.069-2.707,6.217   c-0.804,2.173-1.779,4.332-2.659,6.438c-1.79,4.244-3.6,8.479-5.438,12.703l-5.48,12.686c-1.816,4.234-3.679,8.447-5.458,12.7   C43.275,72.057,39.699,80.553,36,89z"></path></g><g xmlns="http://www.w3.org/2000/svg"><path d="M69.057,9.949c1.319,0.572,2.543,1.273,3.748,1.997l-1.123,0.626c-0.187-0.946-0.352-1.896-0.479-2.846l-0.194-1.429   l1.459,0.492c1.076,0.363,2.129,0.782,3.176,1.215l-1.302,0.554c0.341-0.851,0.707-1.692,1.101-2.522l0.738-1.563l0.844,1.378   c0.279,0.458,0.572,0.906,0.83,1.379c0.262,0.471,0.543,0.927,0.785,1.411l-1.048,0.027C78.336,9.742,79.124,8.844,80,8   c-0.375,1.157-0.838,2.259-1.344,3.334L78.3,12.092l-0.69-0.731c-0.373-0.393-0.705-0.814-1.059-1.22   c-0.355-0.405-0.678-0.833-1.012-1.252l1.582-0.185c-0.284,0.873-0.596,1.736-0.932,2.589l-0.365,0.93l-0.936-0.376   c-1.053-0.423-2.098-0.861-3.119-1.354l1.266-0.937c0.047,0.959,0.058,1.922,0.047,2.886l-0.02,1.697l-1.104-1.072   C70.947,12.087,69.952,11.083,69.057,9.949z"></path></g><path xmlns="http://www.w3.org/2000/svg" d="M22.125,49.375c0.281,0.035,0.556,0.092,0.833,0.186c0.269,0.095,0.533,0.202,0.795,0.292  c0.262,0.086,0.521,0.165,0.783,0.181c0.131,0.011,0.26,0.025,0.392,0.004l0.194-0.017c0.021-0.002,0.089-0.008,0.072-0.006  l0.102-0.028l0.408-0.115c0.13-0.045,0.286-0.061,0.395-0.129c0.23-0.125,0.461-0.224,0.687-0.349l0.668-0.447l0.614-0.52  l0.46-0.388l0.246,0.625l0.195,0.499c0.077,0.156,0.185,0.292,0.27,0.44c0.101,0.136,0.23,0.247,0.338,0.374  c0.132,0.104,0.274,0.195,0.406,0.295l0.465,0.212c0.17,0.042,0.331,0.103,0.503,0.137c0.348,0.063,0.705,0.086,1.067,0.075  c0.363-0.02,0.725-0.074,1.085-0.143c0.358-0.087,0.709-0.192,1.05-0.328c0.337-0.142,0.66-0.305,0.961-0.494  c0.299-0.193,0.561-0.413,0.794-0.645l0.798-0.796l0.516,1.046c0.271,0.552,0.636,0.997,1.087,1.281  c0.452,0.286,1.015,0.395,1.611,0.378c0.599-0.019,1.226-0.168,1.829-0.399c0.625-0.246,1.143-0.521,1.789-0.927  c0.168-0.098,0.286-0.182,0.495-0.292l0.374-0.17c0.07-0.026,0.109-0.054,0.206-0.077c0.102-0.022,0.208-0.04,0.314-0.051  c0.34-0.129,1.092,0.22,1.198,0.384l0.177,0.154l0.105,0.11l0.199,0.21c0.428,0.465,0.934,0.819,1.521,1.165  c0.493,0.283,0.97,0.422,1.482,0.369c0.275-0.043,0.566-0.093,0.885-0.192c0.15-0.035,0.32-0.104,0.482-0.155l0.244-0.083  l0.062-0.021l0.008-0.002c0.1-0.043-0.127,0.056-0.102,0.043l0.016-0.008l0.031-0.015l0.123-0.06  c0.091-0.041-0.051,0.009-0.088,0.052c-0.06,0.058-0.088,0.1-0.106,0.127c-0.009,0.015-0.028,0.061,0.007-0.011l0.034-0.063  c0.03-0.044-0.022,0.017,0.099-0.144c0.094-0.114,0.223-0.222,0.359-0.291c0.066-0.034,0.138-0.062,0.201-0.08l0.113-0.019  c0.154-0.019,0.323-0.007,0.473,0.03c0.197,0.064,0.352,0.138,0.428,0.179l0.137,0.071l0.069,0.036l0.017,0.009l0.125,0.077  l0.028,0.021l0.452,0.324c0.169,0.158,0.453,0.463,0.402,0.383c-0.025,0.021,0.094,0.047,0.195,0.067l0.145,0.047l0.005,0.002  c-0.029-0.003,0.071,0.011-0.063-0.007l0.017,0.002l0.034,0.003l0.067,0.006l0.138,0.013c0.226,0.033,0.25-0.008,0.351,0  c0.103-0.026,0.228-0.03,0.338-0.078c0.458-0.133,0.938-0.517,1.413-0.993c0.479-0.481,0.947-1.052,1.527-1.609  c0.279-0.279,0.666-0.566,0.877-0.741l0.156-0.14l0.1-0.099l0.023-0.023c0,0,0.104-0.095,0.162-0.127  c0.036-0.022,0.073-0.042,0.11-0.058c-0.027,0.007,0.228-0.104,0.459-0.062c0.229,0.014,0.479,0.218,0.498,0.252l0.071,0.087  c0.117,0.177,0.09,0.157,0.097,0.16c0.004,0.011,0.005,0.012,0,0.003c-0.065-0.084-0.009,0.005,0.087,0.06l0.924,0.576  c0.307,0.193,0.576,0.355,0.838,0.462c0.127,0.061,0.738,0.25,0.881,0.223c0.111,0.013,0.229,0.029,0.353-0.002  c0.122-0.001,0.248-0.043,0.375-0.093c0.507-0.187,1.229-0.702,2.03-0.923l0.526-0.145L67.049,49  c0.146,0.319,0.342,0.612,0.598,0.862c0.26,0.246,0.58,0.434,0.928,0.583c0.699,0.293,1.525,0.379,2.326,0.282  c0.401-0.045,0.802-0.141,1.186-0.277c0.371-0.128,0.768-0.354,1.152-0.535c0.212-0.086,0.412-0.188,0.648-0.219  c0.118-0.018,0.211-0.056,0.35-0.054c0.103-0.001,0.22,0.013,0.345,0.05c0.224,0.067,0.405,0.169,0.606,0.175  c0.207,0.019,0.391-0.116,0.562-0.241c-0.148,0.147-0.314,0.322-0.557,0.342c-0.232,0.03-0.459-0.054-0.652-0.078  c-0.087-0.015-0.184-0.015-0.298,0.004c-0.076,0.01-0.187,0.064-0.276,0.093c-0.191,0.051-0.367,0.168-0.545,0.269  c-0.367,0.232-0.693,0.488-1.113,0.701c-0.404,0.21-0.838,0.367-1.285,0.464c-0.891,0.205-1.846,0.225-2.775-0.049  c-0.462-0.145-0.914-0.363-1.312-0.678c-0.395-0.319-0.724-0.725-0.97-1.173l0.733,0.31c-0.611,0.218-1.051,0.645-1.876,1.055  c-0.21,0.096-0.427,0.18-0.673,0.215c-0.233,0.062-0.482,0.063-0.735,0.049c-0.121-0.008-0.263-0.012-0.366-0.025l-0.27-0.057  l-0.268-0.056l-0.068-0.014l-0.032-0.007l-0.095-0.025l-0.154-0.058c-0.428-0.144-0.795-0.345-1.118-0.521  c-0.312-0.179-0.606-0.333-0.974-0.527c-0.213-0.135-0.467-0.263-0.715-0.668l-0.031-0.058c-0.004-0.017-0.041-0.058,0.062,0.1  c0.02,0.026,0.041,0.05,0.062,0.073c0.016,0.03,0.259,0.234,0.482,0.247c0.227,0.042,0.476-0.074,0.443-0.061  c0.032-0.013,0.262-0.029,0.292-0.048C60.717,49.42,61,49.332,61,49.339v0.001l-0.287,0.099c-0.082,0.085-0.256,0.159-0.341,0.235  c-0.343,0.302-0.593,0.454-0.823,0.7c-0.46,0.471-0.928,1.049-1.457,1.626c-0.533,0.566-1.188,1.195-2.127,1.537  c-0.227,0.094-0.479,0.134-0.732,0.18c-0.265,0.023-0.607,0.039-0.746,0.016l-0.137-0.012l-0.07-0.006l-0.034-0.002l-0.017-0.002  L54.146,53.7l-0.013-0.003l-0.384-0.1c-0.253-0.072-0.498-0.119-0.796-0.361c-0.364-0.274-0.306-0.267-0.394-0.366l-0.44-0.31  l-0.028-0.021c0.047,0.028-0.113-0.07,0.104,0.063L52.188,52.6l-0.014-0.008l-0.054-0.025l-0.106-0.055  c-0.084-0.047-0.103-0.039-0.072-0.042c0.103,0.032,0.227,0.039,0.336,0.017l0.08-0.021c0.054-0.012,0.115-0.031,0.175-0.059  c0.118-0.055,0.229-0.147,0.306-0.247c0.102-0.147,0.043-0.062,0.062-0.089l0.004-0.002c0.016-0.029-0.029,0.056-0.062,0.107  c-0.062,0.109-0.146,0.223-0.281,0.335c-0.106,0.103-0.308,0.226-0.305,0.216l-0.123,0.062l-0.029,0.016l-0.142,0.062l-0.067,0.024  l-0.272,0.096c-0.187,0.062-0.354,0.135-0.56,0.188c-0.379,0.125-0.806,0.217-1.254,0.279l-0.715,0.016  c-0.24-0.029-0.481-0.07-0.72-0.117c-0.45-0.137-0.882-0.312-1.271-0.551c-0.43-0.244-0.589-0.382-0.998-0.675  c-0.332-0.267-0.645-0.546-0.924-0.849l-0.176-0.191L44.919,51l-0.031-0.023l-0.025-0.033c0.002,0,0.049,0.043,0.08,0.051  c0.035,0.014,0.079,0.013,0.109,0.009c0.014,0.013,0.03,0.019,0.046,0.019c0.016,0,0.031-0.006,0.043-0.017  c0.006-0.008-0.033,0.017-0.048,0.022c-0.042,0.021-0.084,0.037-0.128,0.053c-0.116,0.055-0.304,0.176-0.452,0.26  c-0.594,0.367-1.372,0.787-2.125,1.032c-0.771,0.262-1.59,0.437-2.456,0.433c-0.856-0.005-1.79-0.207-2.563-0.736  c-0.78-0.52-1.315-1.301-1.632-2.083l1.313,0.25c-0.361,0.326-0.745,0.603-1.147,0.83c-0.403,0.222-0.819,0.398-1.244,0.547  c-0.427,0.142-0.862,0.244-1.303,0.32c-0.444,0.062-0.893,0.092-1.345,0.075c-0.453-0.022-0.905-0.091-1.353-0.213  c-0.222-0.063-0.439-0.16-0.657-0.242c-0.211-0.104-0.415-0.231-0.618-0.351c-0.185-0.154-0.373-0.305-0.543-0.471  c-0.148-0.188-0.312-0.368-0.436-0.568c-0.104-0.212-0.223-0.419-0.302-0.637l-0.181-0.664l0.705,0.238l-0.736,0.498l-0.787,0.414  c-0.28,0.119-0.581,0.216-0.867,0.313c-0.146,0.058-0.281,0.051-0.423,0.08l-0.419,0.062L25.29,50.48  c-0.087,0.009-0.09,0-0.139,0.001l-0.228-0.01c-0.152,0.003-0.301-0.032-0.449-0.064c-0.296-0.058-0.572-0.181-0.826-0.314  c-0.255-0.135-0.495-0.279-0.742-0.412C22.663,49.554,22.397,49.453,22.125,49.375z"></path><path xmlns="http://www.w3.org/2000/svg" d="M64.5,18l0.048,1h-0.096l-0.045-0.957l0.077,0.092L61.4,17.852l-3.09-0.167c-2.06-0.087-4.123-0.097-6.182-0.096  c-2.057,0.017-4.126,0.025-6.175,0.13c-2.056,0.082-4.109,0.203-6.154,0.386c-2.044,0.188-4.084,0.402-6.103,0.706  c-2.016,0.305-4.026,0.688-5.926,1.261c-0.931,0.286-1.89,0.634-2.555,1.091c-0.346,0.233-0.407,0.468-0.36,0.326  c-0.073-0.102,0.182,0.25,0.536,0.435c0.725,0.433,1.682,0.758,2.627,1.022c0.955,0.268,1.943,0.474,2.936,0.67  c3.986,0.761,8.091,1.097,12.185,1.321c4.1,0.223,8.211,0.253,12.313,0.099c2.052-0.079,4.099-0.237,6.141-0.436  c2.041-0.203,4.074-0.488,6.079-0.89c1.003-0.197,1.998-0.43,2.968-0.73c0.957-0.307,1.943-0.658,2.685-1.257  c0.352-0.292,0.592-0.729,0.352-1.042c-0.254-0.335-0.764-0.542-1.224-0.73c-0.954-0.369-1.956-0.65-2.941-0.963  c1.014,0.218,2.028,0.399,3.037,0.682c0.495,0.167,1.023,0.299,1.453,0.76c0.227,0.261,0.26,0.629,0.163,0.932  c-0.089,0.316-0.295,0.531-0.483,0.743c-0.828,0.767-1.82,1.178-2.793,1.576c-0.981,0.383-1.984,0.692-2.994,0.967  c-4.053,1.048-8.196,1.604-12.349,1.928c-4.153,0.338-8.324,0.361-12.486,0.237c-2.082-0.057-4.162-0.208-6.242-0.397  c-2.079-0.201-4.157-0.457-6.231-0.841c-1.039-0.189-2.072-0.428-3.107-0.722c-1.035-0.307-2.065-0.633-3.118-1.263  c-0.263-0.167-0.529-0.345-0.796-0.623c-0.131-0.119-0.263-0.304-0.381-0.484c-0.129-0.186-0.276-0.697-0.256-0.726  c-0.093-0.535,0.131-1.124,0.385-1.426c0.253-0.349,0.524-0.554,0.79-0.752c1.058-0.701,2.088-1.019,3.125-1.342  c2.074-0.578,4.147-0.917,6.225-1.187c2.077-0.264,4.155-0.449,6.236-0.55c2.08-0.11,4.16-0.156,6.238-0.162  c2.085-0.01,4.151,0.095,6.229,0.181c1.036,0.024,2.071,0.127,3.106,0.213c1.033,0.095,2.068,0.153,3.1,0.297l3.088,0.387  l3.064,0.534l0.082,0.014l-0.005,0.078L64.548,19h-0.096L64.5,18z"></path><path xmlns="http://www.w3.org/2000/svg" d="M24,21.25c0,0-0.278,2.777-0.631,7.645C23,33.759,22.633,40.724,22.528,49.072c-0.039,4.173,0.01,8.697,0.327,13.457  c0.31,4.755,0.87,9.764,2.041,14.771c1.267,4.9,3.134,10.268,8.121,12.292c2.37,1.076,5.023,1.664,7.714,2.003  c2.697,0.34,5.451,0.432,8.207,0.405c2.77-0.024,5.494-0.163,8.201-0.542c2.691-0.376,5.344-0.977,7.76-2  c1.195-0.525,2.322-1.166,3.281-1.96c0.238-0.199,0.485-0.394,0.684-0.624l0.316-0.332c0.036-0.039,0.146-0.146,0.121-0.129  l0.149-0.204c0.392-0.545,0.841-1.093,1.098-1.628c1.238-2.146,2.069-4.689,2.679-7.159c0.629-2.489,1-5.01,1.33-7.479  c0.332-2.471,0.528-4.912,0.685-7.291c0.288-4.762,0.341-9.283,0.29-13.458c-0.135-8.348-0.512-15.312-0.891-20.176  C74.279,24.152,74,21.375,74,21.375s0.456,2.754,1.029,7.606c0.539,4.854,1.312,11.8,1.627,20.185  c0.154,4.191,0.214,8.741,0.043,13.559c-0.204,4.812-0.555,9.918-1.784,15.105c-0.634,2.6-1.413,5.186-2.849,7.719  c-0.344,0.676-0.758,1.176-1.148,1.733l-0.148,0.206c-0.115,0.16-0.142,0.162-0.217,0.251l-0.381,0.407  c-0.246,0.285-0.531,0.518-0.812,0.756c-1.129,0.949-2.4,1.678-3.713,2.267c-2.642,1.144-5.431,1.788-8.231,2.204  c-2.794,0.415-5.653,0.588-8.461,0.626c-2.821,0.003-5.655-0.112-8.472-0.489c-2.809-0.381-5.623-1.012-8.253-2.229l-0.971-0.493  l-0.937-0.567c-0.625-0.421-1.251-0.9-1.717-1.348c-0.565-0.535-1.001-1.096-1.471-1.66c-0.38-0.605-0.822-1.186-1.14-1.812  c-1.345-2.485-2.16-5.107-2.781-7.692c-1.205-5.188-1.605-10.289-1.808-15.103c-0.202-4.815-0.14-9.365,0.002-13.558  c0.287-8.386,1.046-15.334,1.576-20.188C23.548,24.005,24,21.25,24,21.25z"></path><circle xmlns="http://www.w3.org/2000/svg" cx="20.5" cy="20.5" r="2.277"></circle><g xmlns="http://www.w3.org/2000/svg"><line fill="none" x1="5.401" y1="8.362" x2="18.377" y2="19.896"></line><line fill="none" x1="28.467" y1="2.596" x2="21.259" y2="18.454"></line><line fill="none" x1="22.7" y1="20.615" x2="40" y2="25.662"></line><line fill="none" x1="20.538" y1="22.778" x2="21.259" y2="41.519"></line><g><line fill="none" x1="18.377" y1="21.337" x2="2.519" y2="28.545"></line><g><path d="M19,20.58v0.01v0.005c0-0.036,0.069,0.049,0.099-0.033L19,20.58z"></path><path d="M22.668,19.9c-0.054-0.188-0.167-0.395-0.33-0.605c-0.174-0.201-0.409-0.386-0.694-0.508     c-0.152-0.036-0.302-0.107-0.451-0.114c-0.155,0-0.262-0.021-0.481,0.017c-0.329,0.026-0.611,0.212-0.844,0.382     c-0.23,0.197-0.375,0.451-0.494,0.682c-0.032,0.13-0.098,0.262-0.091,0.322c-0.006,0.036-0.036,0.048-0.039,0.191l-0.013,0.167     l-0.007,0.083l-0.101,0.037c0.024,0.233,0.106,0.458,0.191,0.694c0.118,0.232,0.291,0.488,0.522,0.684     c0.124,0.065,0.149,0.18,0.376,0.242l0.297,0.097c-0.011,0.021,0.134,0.028,0.193,0.044c0.323,0.073,0.645,0,0.939-0.101     c0.285-0.123,0.522-0.309,0.695-0.51c0.163-0.21,0.275-0.417,0.33-0.604c0.085-0.179,0.064-0.341,0.089-0.442     c0-0.003,0-0.004,0.001-0.007c-0.035-0.022-0.057-0.036-0.057-0.036s0.022,0,0.062,0c0.01-0.07,0.015-0.116,0.015-0.116     s-0.007-0.056-0.02-0.159C22.733,20.239,22.753,20.079,22.668,19.9z"></path></g></g></g><g xmlns="http://www.w3.org/2000/svg"><path d="M10.09,11.355c0.811,0.619,1.652,1.306,2.463,2.027c0.811,0.72,1.594,1.473,2.303,2.207   c0.714,0.728,1.353,1.438,1.875,2.076c0.395,0.469,0.723,0.898,0.981,1.252c0.041-0.062,0.08-0.128,0.122-0.189   c0.393-0.484,0.919-0.809,1.455-0.96c0.542-0.126,1.079-0.12,1.513,0.038c0.147,0.038,0.347,0.136,0.523,0.229   c0.082-0.466,0.246-1.287,0.538-2.295c0.221-0.797,0.517-1.708,0.876-2.667c0.352-0.961,0.764-1.97,1.215-2.961   c0.449-0.991,0.942-1.963,1.434-2.861c0.487-0.9,0.979-1.723,1.434-2.413c0.034-0.053,0.066-0.1,0.1-0.152   c-1.389-0.537-2.887-0.914-4.435-1.07c-1.5-0.11-2.984-0.097-4.492,0.209c-1.509,0.242-2.986,0.784-4.394,1.479   c-2.128,1.078-4.043,2.657-5.587,4.573C8.657,10.296,9.359,10.791,10.09,11.355z"></path><path d="M4.905,26.805c0.661-0.431,1.425-0.888,2.267-1.343c0.897-0.492,1.871-0.981,2.862-1.432   c0.991-0.451,2.001-0.859,2.962-1.213c0.958-0.357,1.87-0.654,2.666-0.875c0.696-0.202,1.296-0.34,1.759-0.435   c-0.117-0.32-0.187-0.662-0.199-1.007l0.01-0.143l0.005-0.042l0.011-0.083l0.02-0.166c0.002-0.082,0.05-0.281,0.11-0.457   c0.02-0.073,0.053-0.124,0.078-0.188c-0.405-0.223-0.914-0.52-1.488-0.898c-0.693-0.444-1.475-0.994-2.281-1.618   c-0.812-0.618-1.65-1.307-2.462-2.028c-0.811-0.72-1.591-1.476-2.301-2.208c-0.62-0.633-1.167-1.242-1.646-1.812   c-0.22,0.314-0.432,0.635-0.631,0.963C5.789,13.22,5.177,14.764,4.7,16.343c-0.2,0.805-0.401,1.611-0.481,2.407   c-0.153,0.74-0.125,1.748-0.182,2.509c0.037,1.659,0.209,3.321,0.661,4.916C4.763,26.386,4.835,26.595,4.905,26.805z"></path><path d="M37.727,18.502c-0.046-0.294-0.095-0.609-0.146-0.946c-0.084-0.331-0.172-0.682-0.266-1.053   c-0.154-0.751-0.49-1.535-0.798-2.402c-0.198-0.416-0.404-0.849-0.618-1.298c-0.219-0.445-0.513-0.872-0.778-1.331   c-1.144-1.783-2.749-3.625-4.906-5.08c-0.706-0.48-1.48-0.909-2.297-1.286c-0.019,0.069-0.036,0.133-0.056,0.204   c-0.221,0.796-0.519,1.708-0.876,2.667c-0.354,0.96-0.762,1.971-1.213,2.962c-0.45,0.991-0.938,1.965-1.432,2.862   c-0.485,0.9-0.978,1.723-1.433,2.413c-0.58,0.902-1.098,1.572-1.393,1.935c0.137,0.089,0.254,0.191,0.371,0.277   c0.119,0.139,0.233,0.271,0.342,0.397c0.084,0.137,0.164,0.267,0.239,0.388c0.117,0.26,0.204,0.481,0.235,0.679   c0.062,0.188,0.047,0.347,0.062,0.45c0.009,0.104,0.013,0.16,0.013,0.16s-0.004,0.046-0.009,0.116   c0.266,0.002,1.337,0.027,2.795,0.239c0.847,0.113,1.823,0.287,2.856,0.514c1.035,0.223,2.129,0.494,3.21,0.81   c1.081,0.315,2.15,0.671,3.143,1.041c0.994,0.362,1.91,0.742,2.686,1.103c0.072,0.033,0.136,0.064,0.206,0.096   c0.021-0.133,0.043-0.277,0.062-0.402c0.1-0.587,0.164-1.088,0.169-1.5c0.044-0.82,0.068-1.257,0.068-1.257   s-0.023-0.437-0.067-1.257C37.891,19.59,37.827,19.089,37.727,18.502z"></path><path d="M34.28,24.911c-1.035-0.222-2.128-0.496-3.209-0.812c-1.082-0.315-2.149-0.675-3.143-1.043   c-0.993-0.364-1.909-0.743-2.685-1.103c-1.333-0.602-2.244-1.152-2.479-1.298c0,0.002,0,0.003,0,0.005   c-0.017,0.103,0,0.26-0.062,0.448c-0.032,0.198-0.12,0.42-0.237,0.68c-0.075,0.122-0.155,0.251-0.239,0.388   c-0.102,0.125-0.218,0.255-0.343,0.396c-0.279,0.233-0.629,0.491-1.077,0.617c-0.052,0.011-0.092,0.026-0.134,0.04   c0.138,0.492,0.358,1.356,0.55,2.456c0.163,0.874,0.309,1.895,0.422,2.99c0.118,1.095,0.209,2.265,0.254,3.436   c0.045,1.171,0.048,2.344,0.014,3.445c-0.028,1.101-0.096,2.13-0.191,3.014c-0.013,0.132-0.027,0.254-0.042,0.38   c0.265-0.011,0.531-0.021,0.787-0.04c2.918-0.295,5.602-1.327,7.749-2.781c2.157-1.456,3.761-3.299,4.904-5.082   c1.171-1.781,1.81-3.557,2.194-5.031c0.049-0.193,0.093-0.366,0.139-0.548c-0.105-0.014-0.207-0.026-0.316-0.042   C36.289,25.313,35.313,25.14,34.28,24.911z"></path><path d="M20.151,35.623c-0.119-1.095-0.206-2.265-0.251-3.436c-0.046-1.171-0.044-2.345-0.011-3.446   c0.028-1.101,0.096-2.13,0.19-3.013c0.104-1.084,0.253-1.946,0.353-2.452c-0.006,0-0.01,0.001-0.017,0.002l-0.305,0.037   c-0.176,0.038-0.552-0.023-0.82-0.088c-0.534-0.152-1.06-0.475-1.454-0.958c-0.08-0.102-0.148-0.213-0.212-0.327   c-0.376,0.287-0.876,0.648-1.487,1.041c-0.69,0.455-1.514,0.947-2.413,1.434c-0.897,0.491-1.87,0.984-2.861,1.434   c-0.991,0.451-2,0.863-2.961,1.215c-0.932,0.349-1.816,0.636-2.598,0.854c0.371,0.964,0.801,1.902,1.339,2.779   c1.701,2.797,4.142,5.098,6.956,6.521c1.401,0.695,2.902,1.24,4.38,1.478c0.718,0.175,1.521,0.2,2.287,0.267   c0.121,0.004,0.25-0.001,0.374,0c-0.022-0.117-0.044-0.229-0.066-0.352C20.41,37.739,20.263,36.718,20.151,35.623z"></path><path d="M20.5,0C9.178,0,0,9.518,0,21.259C0,33,9.178,42.518,20.5,42.518S41,33,41,21.259C41,9.518,31.822,0,20.5,0z    M35.258,31.131c-1.092,1.842-2.675,3.73-4.786,5.354c-2.12,1.604-4.841,2.832-7.899,3.305c-0.338,0.043-0.674,0.077-1.015,0.106   c-0.148,1.002-0.299,1.623-0.299,1.623s-0.196-0.601-0.419-1.579c-0.209,0.011-0.412,0.027-0.629,0.031   c-0.774-0.027-1.541-0.006-2.376-0.151c-1.659-0.18-3.258-0.67-4.831-1.346c-1.585-0.656-3.036-1.652-4.404-2.767   c-1.364-1.133-2.502-2.542-3.51-4.041c-0.679-1.02-1.219-2.13-1.668-3.28c-0.561,0.113-0.904,0.159-0.904,0.159   s0.267-0.234,0.732-0.591c-0.151-0.413-0.292-0.83-0.42-1.25C2.31,24.941,2.094,23.1,2.038,21.259   c0.066-0.985,0.039-1.74,0.219-2.723c0.107-0.949,0.339-1.837,0.571-2.723c0.538-1.751,1.25-3.454,2.258-4.964   c0.329-0.491,0.68-0.965,1.041-1.429c-0.47-0.639-0.726-1.058-0.726-1.058s0.433,0.199,1.106,0.58   c0.639-0.774,1.326-1.5,2.089-2.136c1.368-1.115,2.82-2.111,4.405-2.768c3.117-1.397,6.544-1.757,9.552-1.317   c1.713,0.264,3.296,0.763,4.734,1.421c0.671-0.968,1.18-1.546,1.18-1.546s-0.102,0.772-0.394,1.928   c0.861,0.448,1.667,0.952,2.4,1.506c2.112,1.625,3.694,3.515,4.786,5.355c1.108,1.84,1.733,3.62,2.106,5.104   c0.09,0.373,0.175,0.726,0.254,1.058c0.049,0.338,0.095,0.655,0.138,0.95c0.093,0.589,0.151,1.091,0.152,1.503   c0.035,0.821,0.054,1.258,0.054,1.258s-0.019,0.438-0.054,1.258c-0.001,0.412-0.06,0.914-0.152,1.503   c-0.019,0.128-0.04,0.277-0.06,0.414C39.109,25.089,40,25.662,40,25.662s-1.014,0.004-2.502-0.189   c-0.044,0.185-0.086,0.36-0.134,0.555C36.992,27.512,36.366,29.292,35.258,31.131z"></path></g></g><g id="SvgjsG1093" featurekey="kZnDdN-0" transform="matrix(3.828483819961548,0,0,3.828483819961548,116.93721296120447,8.231242599896579)" fill="#58d5d3"><path d="M0.8 20 l0 -15.6 l7.24 0 c1.58 0 2.92 0.36 4.06 1.08 s1.98 1.66 2.52 2.82 s0.8 2.46 0.8 3.9 c0 1.46 -0.26 2.76 -0.8 3.92 s-1.38 2.1 -2.52 2.8 c-1.14 0.72 -2.48 1.08 -4.06 1.08 l-7.24 0 z M4.8 16.14 l2.94 0 c1.16 0 2.06 -0.36 2.7 -1.08 c0.62 -0.7 0.94 -1.66 0.94 -2.86 s-0.32 -2.16 -0.94 -2.86 c-0.64 -0.7 -1.54 -1.06 -2.7 -1.06 l-2.94 0 l0 7.86 z M17.02 8.42 l0 11.58 l3.18 0 l0.04 -6.04 c0.02 -1.48 1.22 -2.72 2.8 -2.72 l0.84 0 l0.02 -3.04 l-0.86 0 c-0.98 0 -1.94 0.2 -2.8 0.64 l0 -0.42 l-3.22 0 z M25.5 6.199999999999999 c0 0.94 0.76 1.78 1.82 1.78 c1.04 0 1.84 -0.84 1.84 -1.78 c0 -0.92 -0.8 -1.82 -1.84 -1.82 c-1.06 0 -1.82 0.9 -1.82 1.82 z M25.7 8.42 l0 11.58 l3.24 0 l0 -11.58 l-3.24 0 z M30.78 8.52 c0 3.76 -0.02 7.52 -0.02 11.3 l0 0.18 l3.24 0 l0 -5.92 c0 -1.44 1.26 -2.7 2.8 -2.7 c1.48 0 2.64 1.14 2.8 2.5 c0.02 0.2 0 0.42 0 0.62 l0.02 1.46 l0 4 l3.24 0.04 l0 -6.02 c0 -1.46 -0.74 -2.9 -1.8 -3.92 c-1.16 -1.12 -2.58 -1.72 -4.26 -1.72 c-1 0 -1.96 0.22 -2.84 0.66 l0 -0.6 l-3.18 0 l0 0.12 z M44.46 20.02 l3.24 0 l0 -3.4 l0.52 -0.58 l2.92 3.96 l3.96 0 l-4.7 -6.34 l4.94 -5.26 l-4.12 0 l-3.56 3.86 l0 -7.86 l-3.18 0 z M55.06000000000001 16.48 c0 2.8 3.54 3.52 5.7 3.52 c2.14 0 5.34 -0.7 5.34 -3.4 c0 -0.82 -0.24 -1.22 -0.72 -1.82 c-0.4 -0.52 -1 -0.9 -1.56 -1.18 c-0.42 -0.22 -0.88 -0.4 -1.34 -0.54 c-0.46 -0.16 -0.92 -0.28 -1.36 -0.44 c-0.24 -0.08 -0.54 -0.16 -0.86 -0.28 c-0.3 -0.1 -0.6 -0.2 -0.78 -0.3 c-0.1 -0.06 -0.2 -0.12 -0.28 -0.18 s-0.1 -0.12 -0.1 -0.18 c0 -0.16 0.16 -0.3 0.48 -0.42 c0.32 -0.1 0.68 -0.14 0.9 -0.14 c0.34 0 0.8 0.08 1.18 0.24 c0.38 0.18 0.62 0.42 0.62 0.74 l0 0.52 l3.64 -0.02 l0 -0.56 c0 -1.18 -0.64 -2.04 -1.6 -2.68 c-1.18 -0.76 -2.52 -1 -3.9 -1 c-2.16 0 -5.26 0.9 -5.26 3.54 c0 0.46 0.12 0.9 0.36 1.3 c0.2 0.32 0.46 0.68 0.78 0.94 c0.66 0.52 1.66 0.94 2.46 1.2 c0.42 0.14 0.88 0.24 1.3 0.4 c0.24 0.08 0.56 0.16 0.88 0.26 c0.32 0.12 0.6 0.22 0.82 0.32 c0.22 0.12 0.36 0.26 0.36 0.42 c0 0.18 -0.14 0.3 -0.5 0.4 c-0.32 0.08 -0.7 0.08 -0.92 0.08 c-0.5 0 -1.14 -0.06 -1.52 -0.28 c-0.12 -0.06 -0.24 -0.16 -0.34 -0.26 s-0.16 -0.18 -0.16 -0.26 l-0.02 -0.7 l-3.62 0 l0 0.08 c0.02 0.22 0.02 0.44 0.02 0.68 z"></path></g></svg>