<?xml version="1.0" standalone="no"?>
<!DOCTYPE svg PUBLIC "-//W3C//DTD SVG 20010904//EN"
 "http://www.w3.org/TR/2001/REC-SVG-20010904/DTD/svg10.dtd">
<svg version="1.0" xmlns="http://www.w3.org/2000/svg"
 width="928.000000pt" height="928.000000pt" viewBox="0 0 928.000000 928.000000"
 preserveAspectRatio="xMidYMid meet">
<metadata>
Created by potrace 1.14, written by Peter Selinger 2001-2017
</metadata>
<g transform="translate(0.000000,928.000000) scale(0.100000,-0.100000)"
fill="#000000" stroke="none">
<path d="M2157 8974 c-1 -1 -29 -5 -62 -8 -163 -15 -320 -53 -495 -118 -64
-24 -264 -127 -330 -170 -207 -136 -375 -297 -512 -492 -32 -44 -62 -85 -66
-91 -4 -5 -11 -17 -15 -25 -4 -8 -17 -31 -28 -50 -99 -163 -198 -428 -233
-625 -3 -16 -8 -41 -11 -55 -27 -119 -27 -471 1 -655 6 -40 41 -196 50 -225 3
-8 5 -15 4 -15 -2 0 61 -177 76 -210 10 -22 18 -42 19 -45 2 -15 60 -125 67
-128 4 -2 8 -9 8 -15 0 -29 160 -260 251 -361 159 -179 352 -327 564 -435 90
-46 264 -114 319 -125 11 -3 46 -11 76 -19 30 -8 73 -18 95 -22 22 -5 47 -10
55 -11 45 -9 149 -17 260 -19 69 -2 128 -4 132 -4 4 -1 5 -9 3 -19 -6 -35 -20
-315 -32 -642 -9 -242 -8 -958 0 -1130 7 -141 8 -152 6 -172 -1 -13 6 -117 16
-243 3 -33 7 -91 10 -130 5 -72 10 -125 20 -205 3 -25 7 -65 10 -90 3 -25 8
-63 10 -85 3 -22 7 -51 10 -65 3 -14 7 -43 10 -65 4 -22 8 -49 9 -60 8 -47 26
-142 30 -165 3 -14 10 -47 16 -75 14 -67 17 -79 35 -155 9 -36 18 -72 20 -80
4 -19 64 -210 72 -230 4 -8 7 -17 8 -20 1 -3 7 -18 13 -33 7 -16 12 -31 12
-34 0 -26 134 -287 192 -375 67 -99 199 -239 269 -284 24 -16 46 -31 49 -34
11 -13 109 -68 175 -99 39 -18 78 -37 87 -42 10 -5 22 -9 27 -9 5 0 26 -8 47
-17 22 -9 44 -18 49 -19 6 -1 51 -14 100 -29 50 -15 99 -29 110 -30 11 -2 61
-13 110 -24 98 -22 275 -49 370 -57 249 -22 356 -26 590 -26 172 0 450 7 450
12 0 1 25 3 55 5 75 4 182 15 200 20 8 2 46 7 85 10 38 4 72 8 76 10 3 2 28 7
55 10 27 4 69 11 94 17 25 5 56 12 70 14 14 3 45 10 70 15 25 6 54 12 64 15
36 7 221 65 251 78 17 8 41 17 55 21 14 4 50 19 80 33 30 14 55 23 55 21 0 -2
14 6 32 19 17 12 35 22 40 22 4 0 28 14 53 30 25 17 54 36 64 43 41 26 143
113 178 152 59 64 98 112 98 121 0 4 7 16 17 26 33 37 121 207 172 335 64 158
164 514 185 653 2 14 9 53 15 87 19 104 20 114 36 233 30 222 43 364 60 645
33 563 20 1553 -30 2160 -3 33 -7 94 -10 135 -3 41 -7 95 -10 120 -3 25 -7 79
-10 120 -2 41 -7 91 -9 110 -3 19 -7 62 -10 95 -3 33 -8 80 -10 105 -3 25 -8
72 -11 105 -3 33 -7 76 -10 96 -3 20 -7 56 -10 80 -4 55 -14 139 -22 204 -3
28 -7 64 -8 80 -2 17 -5 48 -9 70 -5 38 -9 70 -21 168 -3 23 -8 53 -10 67 -2
14 -7 52 -11 85 -8 75 -12 96 -19 103 -5 6 -1 -63 11 -173 3 -27 7 -77 9 -110
2 -33 6 -89 9 -125 11 -117 17 -204 20 -266 2 -34 6 -67 10 -72 3 -6 2 -13 -4
-17 -6 -4 -7 -11 -4 -17 7 -11 10 -49 18 -203 3 -44 5 -80 6 -80 1 0 5 -71 15
-305 4 -80 8 -179 10 -220 20 -433 26 -1468 11 -1790 -13 -275 -26 -473 -42
-625 -2 -27 -7 -75 -9 -105 -3 -30 -7 -65 -9 -77 -3 -12 -7 -53 -11 -90 -3
-37 -7 -75 -10 -83 -3 -13 -6 -36 -21 -145 -8 -67 -16 -114 -31 -190 -9 -44
-17 -89 -18 -100 -7 -82 -108 -464 -146 -552 -10 -23 -17 -43 -14 -43 7 0 -76
-184 -117 -260 -142 -261 -318 -404 -642 -525 -91 -34 -322 -98 -398 -110 -18
-3 -44 -7 -58 -10 -14 -3 -40 -7 -57 -10 -18 -3 -48 -8 -65 -11 -33 -5 -69
-10 -163 -19 -28 -3 -66 -7 -85 -10 -221 -28 -987 -28 -1200 0 -19 3 -55 7
-80 10 -25 3 -63 8 -85 10 -22 3 -67 10 -100 17 -33 6 -71 12 -85 14 -14 2
-61 13 -105 25 -44 11 -87 22 -95 24 -69 15 -292 104 -368 146 -160 90 -307
247 -413 444 -28 52 -51 98 -51 102 -1 4 -14 35 -28 68 -55 122 -147 421 -174
565 -3 14 -12 57 -20 96 -9 39 -18 88 -21 110 -3 21 -8 50 -11 64 -3 13 -7 38
-10 55 -2 16 -6 41 -9 55 -2 13 -7 42 -10 65 -3 22 -8 51 -10 65 -6 29 -15
102 -20 145 -1 17 -6 55 -9 85 -7 52 -10 85 -21 205 -2 28 -7 82 -11 120 -7
78 -10 123 -19 270 -3 55 -8 129 -10 165 -2 36 -7 182 -10 325 -4 143 -8 261
-10 264 -2 2 0 12 6 22 5 11 6 19 2 19 -10 0 -9 324 1 328 4 2 39 -13 79 -32
40 -19 87 -38 105 -41 19 -3 37 -6 40 -7 19 -5 118 15 157 32 25 11 45 16 45
12 0 -4 4 -2 8 3 4 6 21 18 39 28 l32 18 17 -33 c29 -57 65 -97 115 -129 26
-17 49 -30 52 -28 2 2 11 -2 20 -10 10 -7 17 -10 17 -6 0 4 6 3 13 -3 24 -20
162 -30 247 -18 90 13 239 66 248 88 5 11 32 10 32 -1 0 -4 13 -21 29 -38 83
-88 174 -124 311 -126 134 -1 286 48 438 144 21 13 25 11 60 -24 112 -114 260
-188 370 -183 34 2 42 -1 42 -15 0 -10 -4 -21 -10 -24 -5 -3 -10 -16 -10 -29
0 -12 -5 -27 -12 -34 -6 -6 -13 -17 -14 -24 -2 -13 -133 -337 -159 -393 -7
-16 -17 -42 -20 -57 -4 -16 -10 -28 -14 -28 -4 0 -8 -6 -8 -12 0 -11 -63 -175
-93 -243 -14 -31 -162 -413 -165 -425 -1 -3 -6 -16 -12 -30 -41 -96 -123 -313
-123 -324 0 -6 -4 -16 -9 -22 -4 -5 -27 -58 -51 -119 -23 -60 -74 -191 -112
-290 -62 -161 -116 -300 -181 -465 -12 -30 -22 -57 -23 -60 0 -3 -5 -16 -11
-30 -6 -14 -19 -45 -28 -70 -9 -25 -23 -59 -31 -77 -8 -17 -14 -36 -14 -42 0
-6 -4 -19 -9 -29 -5 -9 -24 -55 -42 -102 -17 -47 -39 -100 -47 -118 -8 -18
-12 -35 -9 -39 4 -3 9 3 13 13 8 22 68 162 92 214 9 19 17 37 17 40 1 3 9 23
19 45 25 56 34 79 33 85 -1 3 9 23 20 45 12 22 28 56 36 75 35 85 50 119 93
215 14 33 34 80 44 105 10 25 29 70 43 100 47 105 147 346 147 354 0 5 7 17
15 26 8 9 16 25 18 36 2 10 13 40 25 66 12 26 22 49 22 52 0 3 11 29 24 58 25
53 58 129 61 138 1 3 8 21 17 40 8 19 48 112 88 205 40 94 80 188 90 210 10
23 22 53 25 68 4 15 11 27 16 27 5 0 9 6 9 13 0 8 18 56 40 108 22 52 44 103
49 114 5 11 17 40 29 65 11 25 39 90 62 145 23 55 52 123 65 150 12 28 39 91
60 140 21 50 42 94 47 100 4 5 8 16 8 26 0 27 38 67 75 79 32 11 38 9 68 -16
33 -28 111 -65 131 -63 6 1 21 1 34 0 l22 -1 -21 -42 c-12 -24 -22 -45 -22
-48 1 -7 -7 -32 -17 -55 -15 -34 -212 -527 -230 -575 -16 -41 -179 -447 -199
-495 -5 -11 -28 -69 -51 -130 -24 -60 -49 -123 -56 -139 -8 -16 -14 -33 -14
-37 0 -4 -5 -20 -12 -36 -6 -15 -12 -30 -13 -33 -1 -3 -9 -23 -19 -45 -10 -22
-19 -44 -20 -50 -2 -5 -8 -23 -14 -38 -7 -16 -12 -30 -12 -31 0 -2 -8 -21 -17
-42 -9 -22 -18 -43 -19 -49 -1 -5 -25 -66 -52 -135 -28 -69 -75 -188 -105
-265 -30 -77 -81 -205 -112 -285 -31 -80 -68 -174 -81 -210 -14 -36 -29 -74
-34 -85 -5 -11 -30 -74 -56 -140 -122 -316 -148 -381 -156 -392 -7 -9 -19 -8
-49 2 -22 8 -41 15 -44 15 -3 0 -10 2 -17 5 -39 13 -92 24 -96 20 -3 -3 1 -6
9 -9 8 -2 56 -18 108 -35 52 -17 96 -29 99 -26 5 5 132 293 136 310 1 6 15 36
29 69 15 32 27 60 27 62 0 2 13 32 29 66 16 35 48 108 71 163 23 55 50 118 60
140 10 22 46 105 80 185 34 80 70 163 80 185 10 22 46 105 80 185 34 80 70
163 80 185 10 22 59 137 110 255 51 118 100 233 110 255 9 22 36 85 59 140 23
55 46 109 51 120 5 11 19 43 31 70 12 28 22 56 22 63 0 6 4 12 9 12 4 0 8 5 8
11 0 6 36 95 80 197 44 103 80 192 80 199 0 7 4 13 8 13 5 0 9 6 9 13 0 6 13
39 28 72 35 77 40 88 120 281 65 155 68 161 113 189 26 16 81 65 122 109 41
44 99 104 127 134 l53 56 92 -46 c189 -93 274 -94 422 -5 l60 36 42 -39 c133
-123 344 -136 533 -34 36 20 68 39 71 44 8 13 93 47 110 45 74 -12 95 -6 36
10 -62 16 -94 11 -181 -30 -123 -58 -220 -73 -330 -50 -99 20 -164 64 -201
138 -30 58 -30 58 -97 33 -34 -13 -84 -35 -110 -50 -64 -34 -107 -41 -163 -27
-52 13 -189 92 -220 127 -12 13 -36 27 -53 30 -26 6 -39 1 -74 -27 -23 -19
-51 -41 -61 -49 -10 -8 -26 -23 -35 -32 -23 -27 -32 -22 -16 10 8 15 21 43 29
62 63 150 207 493 222 525 9 22 18 45 20 50 1 6 11 30 22 55 11 25 52 122 92
215 39 94 80 189 91 212 10 24 19 45 19 47 0 2 8 21 17 42 9 22 17 41 18 44 0
3 11 27 23 54 12 27 22 51 22 53 0 3 6 19 14 36 8 18 49 115 91 217 42 102 83
200 91 217 8 18 21 50 29 70 7 21 34 88 60 148 26 61 56 133 67 160 l21 50 91
28 c119 38 249 93 311 133 59 39 124 94 110 94 -5 0 -4 4 3 9 8 4 16 24 19 43
5 43 -31 91 -86 114 -41 17 -163 51 -201 56 -14 2 -28 7 -32 12 -5 8 76 180
115 241 115 183 218 297 301 335 59 26 123 28 173 3 50 -24 93 -110 161 -321
46 -141 109 -352 117 -392 2 -8 4 -17 5 -20 1 -3 2 -8 1 -12 -1 -11 35 -10 84
2 22 5 51 11 65 14 14 2 46 9 73 15 26 6 64 14 84 17 20 3 46 10 59 14 12 5
24 7 27 4 2 -2 16 0 30 5 14 5 45 12 68 16 79 11 80 12 74 58 -4 23 -8 44 -10
47 -2 3 -6 21 -9 40 -10 62 -10 63 -61 245 -12 43 -62 188 -82 235 -3 8 -7 20
-8 25 -5 21 -89 191 -107 218 -11 15 -17 27 -14 27 8 0 -67 112 -127 189 -83
106 -250 227 -342 247 -11 2 -33 7 -50 11 -48 10 -270 5 -270 -7 0 -1 -9 -3
-20 -4 -80 -11 -233 -83 -327 -153 -104 -79 -179 -162 -270 -298 -59 -89 -188
-337 -188 -362 0 -7 -4 -13 -10 -13 -5 0 -10 -5 -10 -11 0 -6 -26 -76 -57
-155 -44 -111 -61 -143 -72 -140 -9 3 -36 8 -61 11 -25 3 -52 8 -60 10 -8 2
-35 7 -60 10 -25 3 -52 8 -60 10 -8 2 -40 7 -70 10 -102 12 -125 15 -161 20
-20 3 -54 7 -75 10 -21 2 -57 6 -79 9 -22 2 -78 8 -125 11 -47 4 -107 9 -135
11 -224 21 -430 27 -887 27 l-427 0 -12 51 c-6 28 -21 80 -32 116 -12 36 -22
67 -22 70 -1 3 -6 16 -12 30 -6 14 -23 54 -38 90 -102 244 -283 494 -501 691
-103 93 -297 222 -424 281 -57 27 -131 60 -140 63 -3 1 -43 14 -90 29 -133 43
-266 71 -385 82 -53 5 -295 11 -298 8z m278 -247 c17 -3 52 -9 79 -12 26 -3
67 -12 90 -20 22 -8 48 -15 56 -15 15 0 191 -64 221 -80 13 -7 27 6 65 58 55
75 63 69 40 -29 -8 -35 -13 -66 -11 -70 3 -3 40 -27 83 -52 44 -25 86 -52 93
-60 8 -7 19 -16 26 -18 29 -10 220 -191 296 -280 90 -104 275 -409 249 -409
-4 0 -18 25 -31 55 -13 30 -28 55 -32 55 -5 0 -8 3 -7 8 3 10 -65 112 -131
197 -69 88 -201 218 -283 279 -35 26 -70 52 -78 59 -8 7 -26 18 -40 25 -14 6
-52 28 -85 47 -33 19 -64 34 -70 35 -5 0 -25 -48 -43 -108 -33 -105 -113 -314
-154 -402 -80 -171 -105 -220 -201 -390 -41 -73 -128 -204 -139 -208 -4 -2 -8
-8 -8 -13 0 -9 -8 -21 -37 -54 -18 -19 -18 -18 27 -64 22 -22 40 -43 40 -47 0
-7 -28 13 -50 37 -14 15 -109 50 -128 47 -95 -15 -152 -51 -186 -120 -58 -116
-2 -250 120 -290 84 -27 144 -12 221 55 l37 32 -25 -33 c-29 -40 -110 -102
-133 -102 -17 0 -18 -12 -1 -80 15 -61 25 -107 29 -130 2 -14 7 -41 10 -60 12
-69 16 -96 22 -150 3 -30 7 -65 9 -78 7 -45 19 -208 19 -274 1 -38 3 -68 6
-68 3 0 5 -77 5 -170 0 -94 -2 -170 -5 -170 -3 0 -5 -33 -6 -73 0 -39 -3 -102
-7 -139 -5 -54 -3 -68 8 -68 9 0 13 -12 12 -40 -2 -36 -8 -45 -29 -41 -5 0 -8
-2 -9 -7 -1 -10 -7 -41 -15 -82 -4 -19 -7 -38 -6 -42 1 -5 -2 -8 -7 -8 -5 0
-11 14 -15 30 -3 17 -9 44 -12 60 -4 17 -9 32 -13 34 -3 2 -55 6 -116 7 -352
9 -667 125 -968 356 -69 53 -202 184 -243 239 -16 21 -32 41 -35 44 -3 3 -31
41 -61 85 -61 88 -127 206 -154 275 -25 66 -29 69 -72 60 l-37 -9 33 28 32 28
-16 44 c-8 24 -17 51 -19 59 -2 8 -11 40 -19 70 -14 54 -25 110 -32 160 -1 14
-7 54 -12 90 -11 68 -8 366 3 435 25 153 92 402 115 425 3 3 6 12 8 20 10 54
132 270 204 361 27 35 37 69 20 69 -8 0 -42 52 -42 64 0 4 19 -5 43 -18 l43
-26 80 83 c102 105 147 142 269 224 145 97 144 96 220 131 240 109 444 151
705 147 85 -2 169 -6 185 -8z m4927 -446 c-3 -9 -20 -45 -38 -81 -17 -36 -34
-75 -38 -88 -8 -24 -16 -24 -76 1 -14 5 -29 11 -35 13 -5 2 -38 13 -72 25 -47
17 -60 26 -52 35 24 29 198 98 269 107 45 5 48 4 42 -12z m228 -19 c30 -14 68
-38 84 -53 l29 -27 -49 -56 c-27 -31 -51 -56 -54 -56 -7 0 -100 158 -100 171
0 5 -4 9 -8 9 -5 0 -14 12 -21 26 l-12 26 38 -7 c21 -3 63 -18 93 -33z m160
-119 c0 -5 15 -24 33 -43 44 -48 88 -117 147 -230 23 -43 80 -168 80 -174 0
-3 5 -17 12 -33 6 -15 12 -32 14 -38 1 -5 13 -44 27 -85 35 -109 56 -182 60
-205 1 -11 6 -25 10 -32 4 -6 3 -14 -1 -17 -8 -5 -70 -20 -122 -29 -14 -3 -41
-8 -60 -12 l-36 -6 -14 53 c-8 29 -15 56 -16 61 -1 4 -2 8 -3 10 -1 1 -26 75
-56 165 -63 190 -120 314 -164 358 l-31 31 25 52 c14 28 25 57 25 64 0 7 5 18
12 25 6 6 13 17 14 24 5 29 24 68 34 68 5 0 10 -3 10 -7z m-799 -75 c1 -25 4
-49 14 -85 7 -29 -7 -29 -62 0 l-42 22 32 42 c36 47 57 54 58 21z m528 -71
l25 -27 -33 4 c-41 5 -45 10 -31 36 6 12 12 20 13 18 1 -1 13 -15 26 -31z
m-548 -139 l98 -101 -30 -41 c-49 -64 -119 -173 -119 -184 0 -6 -4 -12 -8 -14
-12 -4 -132 -244 -132 -262 0 -9 -4 -16 -10 -16 -5 0 -10 -8 -10 -18 0 -10 -4
-22 -8 -28 -5 -5 -21 -40 -37 -79 -15 -38 -34 -86 -42 -105 -8 -19 -18 -44
-23 -55 -12 -33 -73 -180 -76 -183 -2 -4 -35 -9 -89 -16 -16 -2 -50 -7 -75
-11 -54 -9 -100 -13 -100 -10 0 3 28 73 40 100 40 92 121 289 125 305 2 8 14
41 28 73 14 31 23 57 20 57 -3 0 -1 6 4 13 6 6 16 29 23 50 7 22 18 51 26 65
8 15 14 31 14 35 0 5 12 34 26 65 15 31 27 63 27 70 0 6 4 12 9 12 4 0 8 4 8
10 0 36 187 370 208 370 2 0 48 -46 103 -102z m262 62 c7 -6 -53 -60 -66 -60
-3 0 -5 20 -5 44 l0 44 31 -10 c18 -6 36 -14 40 -18z m-3452 -207 c13 -16 12
-17 -3 -4 -10 7 -18 15 -18 17 0 8 8 3 21 -13z m27 -78 c-3 -3 -9 2 -12 12 -6
14 -5 15 5 6 7 -7 10 -15 7 -18z m16 -31 c3 -8 2 -12 -4 -9 -6 3 -10 10 -10
16 0 14 7 11 14 -7z m1891 -258 c209 -8 323 -14 403 -21 31 -3 89 -8 127 -11
66 -5 107 -10 112 -13 2 0 -6 -25 -18 -53 -11 -29 -22 -57 -23 -63 -2 -5 -8
-23 -15 -40 -78 -194 -116 -287 -131 -320 -10 -22 -25 -57 -33 -77 -9 -21 -20
-39 -24 -39 -4 -1 -21 -3 -38 -4 -16 -1 -59 -5 -95 -9 -256 -26 -494 -36 -920
-36 -351 0 -559 7 -805 24 -27 2 -56 5 -63 5 -11 1 -12 14 -7 58 21 183 21
427 0 536 -4 18 -1 27 7 28 53 5 96 9 183 14 55 3 125 8 155 10 30 2 168 7
305 11 138 3 251 7 252 8 4 3 469 -3 628 -8z m1340 -194 c176 -62 206 -101
134 -172 -22 -22 -47 -40 -55 -40 -8 0 -14 -4 -14 -8 0 -4 -15 -13 -32 -21
-74 -28 -188 -69 -188 -66 0 2 -25 -5 -55 -15 -30 -10 -57 -15 -60 -10 -6 9
58 173 117 302 35 77 26 75 153 30z m-4510 -82 c3 -5 1 -10 -4 -10 -6 0 -11 5
-11 10 0 6 2 10 4 10 3 0 8 -4 11 -10z m420 -51 c50 -11 102 -21 116 -23 14
-3 55 -12 90 -21 35 -9 72 -19 82 -20 20 -5 26 -6 237 -75 85 -28 164 -54 175
-59 11 -5 56 -24 100 -42 44 -18 86 -37 92 -42 7 -5 19 -7 27 -4 8 3 17 0 19
-7 4 -10 -5 -13 -36 -10 -42 2 -124 11 -182 19 -16 2 -55 7 -85 10 -30 4 -66
9 -80 11 -14 3 -38 7 -55 9 -101 15 -174 28 -202 37 -18 5 -37 7 -43 3 -5 -3
-10 -1 -10 5 0 6 -6 10 -12 9 -62 -11 -447 119 -472 159 -9 14 4 42 19 42 7 0
18 7 25 15 15 18 52 14 195 -16z m3565 -363 c0 -2 -10 -25 -22 -52 -12 -27
-23 -53 -24 -59 -2 -10 -134 -334 -156 -385 -6 -14 -13 -31 -14 -39 -1 -7 -7
-18 -13 -24 -6 -6 -11 -17 -11 -24 0 -7 -11 -37 -25 -67 -14 -30 -25 -61 -25
-68 0 -8 -4 -18 -9 -24 -4 -5 -20 -40 -36 -79 -15 -38 -32 -81 -38 -95 -5 -14
-11 -29 -13 -35 -1 -5 -35 -89 -74 -185 -71 -176 -78 -194 -98 -240 -6 -14
-20 -47 -31 -75 -84 -214 -236 -594 -256 -640 -27 -63 -86 -210 -89 -220 -7
-34 -42 -113 -55 -127 -14 -15 -65 -24 -107 -19 -6 0 -28 16 -48 35 -21 18
-55 41 -77 51 -40 18 -46 32 -29 63 8 14 60 127 65 142 10 28 18 48 26 62 5
10 9 25 9 33 0 8 5 15 10 15 6 0 9 3 8 8 -1 4 4 19 10 35 7 15 17 39 24 55 6
15 11 30 10 35 -1 4 2 7 7 7 5 0 12 11 15 25 5 21 72 178 138 325 20 43 40 90
43 100 2 7 16 38 95 220 86 198 93 214 95 220 0 3 11 28 24 55 12 28 38 88 58
135 19 47 46 109 59 138 13 29 35 80 50 115 14 34 33 80 43 102 10 22 55 128
101 237 91 215 78 199 175 214 17 3 55 11 85 17 59 14 100 19 100 13z m-479
-115 c-11 -21 -17 -41 -14 -45 4 -3 1 -6 -5 -6 -7 0 -12 -6 -12 -13 0 -7 -22
-66 -50 -131 -27 -65 -50 -124 -50 -132 0 -8 -4 -14 -10 -14 -5 0 -10 -6 -10
-14 0 -12 -12 -42 -59 -151 -5 -11 -28 -67 -51 -125 -23 -58 -48 -118 -55
-135 -7 -16 -48 -115 -90 -220 -42 -104 -84 -206 -92 -225 -8 -19 -19 -44 -23
-55 -26 -66 -112 -276 -220 -540 -100 -244 -115 -283 -120 -297 -1 -4 -19 -46
-39 -94 -37 -85 -39 -88 -82 -101 -118 -36 -216 0 -353 131 -33 31 -66 56 -73
56 -7 0 -13 5 -13 11 0 22 -102 3 -160 -30 -178 -101 -263 -133 -370 -137 -54
-2 -75 3 -125 27 -63 30 -79 49 -140 161 l-31 57 -59 -59 c-33 -33 -66 -59
-72 -60 -7 0 -13 -3 -13 -8 0 -8 -73 -43 -145 -68 -68 -24 -245 -25 -296 -1
-64 29 -101 68 -136 145 -36 79 -35 79 -82 34 -66 -63 -217 -141 -281 -146
-17 -2 -149 32 -164 42 -6 3 -17 7 -25 9 -28 4 -34 24 -32 100 3 76 8 322 10
475 1 86 -3 81 81 92 55 8 173 34 200 44 14 5 28 10 33 11 19 2 63 14 72 20 6
3 15 6 20 7 68 10 439 204 453 236 2 5 8 8 14 8 16 0 139 104 237 200 198 194
359 445 462 723 34 89 32 85 44 140 4 20 11 39 15 42 11 7 54 7 210 0 264 -13
873 -7 1079 10 42 3 101 8 131 10 103 8 185 16 225 21 22 3 58 8 80 10 22 2
69 6 105 10 36 4 67 8 69 10 2 2 10 4 18 4 10 0 9 -9 -6 -39z m-2230 -114
c-10 -9 -11 -8 -5 6 3 10 9 15 12 12 3 -3 0 -11 -7 -18z m-24 -74 c-2 -5 -11
-25 -21 -45 -9 -21 -19 -38 -22 -38 -3 0 -3 3 -1 8 2 4 11 24 21 45 9 20 19
37 22 37 3 0 3 -3 1 -7z m-81 -170 c-45 -85 -124 -209 -147 -233 -8 -8 -27
-33 -44 -55 -38 -51 -189 -202 -241 -240 -21 -17 -48 -38 -59 -48 -11 -10 -36
-28 -55 -40 -19 -11 -37 -24 -40 -27 -8 -11 -179 -98 -271 -139 -43 -18 -195
-65 -250 -76 -88 -18 -86 -19 -85 19 1 40 8 49 39 53 52 5 184 31 207 40 8 4
17 7 20 8 24 6 69 23 145 53 185 73 352 187 500 337 79 80 145 154 145 162 0
3 6 11 14 18 11 12 66 97 143 223 31 50 18 17 -21 -55z"/>
<path d="M2178 8645 c-1 -1 -23 -6 -48 -9 -46 -6 -135 -21 -181 -31 -14 -2
-46 -12 -70 -21 -24 -8 -51 -17 -59 -19 -26 -6 -177 -73 -225 -100 -55 -30
-186 -118 -223 -149 -84 -69 -158 -142 -225 -220 l-25 -29 26 -21 c15 -12 41
-30 57 -41 36 -23 242 -183 292 -228 95 -84 163 -149 242 -231 125 -129 132
-137 176 -191 22 -28 46 -56 53 -63 6 -8 17 -22 22 -33 14 -25 19 -24 58 12
69 65 182 89 262 57 l35 -14 33 130 c18 72 42 158 53 191 29 85 88 246 99 270
5 11 32 71 60 134 28 62 70 148 92 190 22 42 48 90 56 106 9 17 40 70 70 118
30 49 52 90 51 92 -15 14 -226 72 -294 81 -27 3 -54 9 -59 11 -9 6 -322 14
-328 8z"/>
<path d="M992 7881 c-54 -90 -133 -261 -141 -303 -1 -5 -10 -32 -21 -60 -10
-29 -21 -64 -24 -78 -2 -14 -9 -47 -16 -75 -15 -68 -23 -123 -24 -167 -1 -21
-3 -38 -7 -38 -7 0 -4 -273 5 -340 9 -71 15 -109 21 -140 3 -14 7 -36 10 -50
3 -14 12 -48 21 -77 l16 -52 37 24 c54 36 271 155 282 155 5 0 9 5 9 10 0 6 7
10 15 10 8 0 41 13 72 29 147 72 298 133 463 185 146 46 164 52 227 66 51 11
52 12 42 38 -12 32 -10 119 4 147 7 13 6 20 -1 23 -33 11 -295 193 -402 279
-186 149 -386 339 -487 461 -20 23 -38 42 -42 42 -4 0 -30 -40 -59 -89z"/>
<path d="M1979 6932 c-13 -9 -28 -20 -34 -25 -27 -22 -184 -120 -280 -174
-138 -78 -511 -247 -563 -255 -9 -2 -19 -5 -22 -8 -8 -8 -179 -63 -196 -63
-18 0 -18 -5 6 -55 11 -22 20 -46 20 -51 0 -6 13 -33 30 -61 16 -28 30 -54 30
-57 0 -8 103 -163 126 -190 11 -11 35 -41 54 -65 97 -120 259 -257 405 -341
88 -51 235 -120 235 -111 0 4 6 2 13 -4 7 -6 25 -13 40 -16 15 -2 32 -8 38
-11 11 -7 114 -33 159 -40 73 -12 101 -15 168 -20 l73 -6 -6 48 c-4 26 -9 59
-11 73 -7 41 -16 113 -20 150 -1 19 -5 49 -8 65 -36 232 -22 870 23 1075 l8
35 -45 2 c-49 1 -122 22 -122 35 0 4 -5 8 -12 8 -6 0 -28 18 -49 39 -35 39
-37 39 -60 23z"/>
<path d="M7221 6884 c0 -11 3 -14 6 -6 3 7 2 16 -1 19 -3 4 -6 -2 -5 -13z"/>
<path d="M3715 3782 c-2 -2 -32 -6 -67 -8 -122 -9 -227 -18 -328 -29 -30 -3
-75 -8 -100 -10 -25 -3 -65 -7 -90 -10 -25 -3 -70 -8 -100 -11 -55 -5 -84 -19
-74 -35 2 -5 7 -21 9 -36 2 -16 8 -64 14 -108 6 -44 13 -98 15 -120 3 -22 7
-58 11 -80 12 -86 27 -181 31 -205 5 -28 12 -79 20 -129 2 -19 11 -66 19 -104
8 -38 12 -74 9 -79 -3 -4 10 -6 28 -4 18 3 49 8 68 10 19 3 69 12 110 21 41 8
86 17 100 19 14 3 25 5 25 6 0 2 24 7 74 15 23 3 55 11 70 16 14 6 27 10 29 9
1 -1 15 1 30 4 15 4 36 8 47 10 11 2 49 12 85 21 36 9 73 19 84 21 37 7 28 14
-20 15 -103 2 -325 -1 -460 -6 l-141 -5 -2 48 c-1 26 -4 65 -6 87 -2 22 -6 69
-9 105 -12 132 -15 166 -21 220 -3 30 -7 64 -10 75 -7 33 7 42 70 49 33 4 74
9 90 12 17 2 46 6 65 8 19 3 46 7 60 10 21 4 104 16 209 32 14 2 36 5 48 8 30
6 32 2 48 -99 3 -22 22 -117 30 -150 2 -11 11 -51 19 -90 9 -38 25 -106 37
-150 12 -44 23 -95 26 -113 3 -18 8 -34 12 -36 8 -5 6 314 -4 534 -10 243 -11
249 -19 258 -7 7 -134 10 -141 4z"/>
<path d="M5683 3097 c3 -8 3 -18 -1 -22 -3 -3 -7 -16 -7 -28 -1 -12 -5 -42 -9
-67 -4 -25 -10 -58 -12 -75 -3 -16 -7 -37 -9 -45 -2 -8 -7 -35 -10 -60 -3 -25
-10 -70 -15 -100 -17 -98 -27 -161 -35 -230 -2 -14 -4 -27 -5 -30 -1 -3 -2 -7
-2 -10 0 -3 -7 -57 -16 -120 -10 -63 -17 -130 -17 -149 0 -36 2 -37 75 -46 19
-2 55 -7 80 -10 77 -10 137 -17 258 -30 26 -3 65 -7 87 -10 22 -2 74 -7 115
-10 41 -3 95 -7 120 -10 25 -2 88 -7 140 -10 94 -5 94 -5 55 11 -22 8 -51 17
-65 20 -14 2 -32 7 -40 11 -8 3 -19 7 -25 9 -5 1 -37 10 -70 19 -166 45 -265
71 -315 81 -14 3 -45 11 -70 18 -25 7 -48 14 -52 15 -5 0 -9 1 -10 2 -2 0 -17
2 -34 4 -40 6 -84 22 -84 32 0 5 4 24 10 43 5 19 11 49 14 65 3 17 15 75 26
130 11 55 23 115 26 134 3 18 8 42 10 52 10 45 12 58 24 129 7 41 16 78 19 82
4 4 45 1 91 -7 93 -15 147 -24 199 -31 19 -2 46 -6 60 -9 61 -11 79 -14 126
-21 28 -3 62 -7 78 -8 15 0 27 -3 27 -6 0 -3 17 -6 38 -7 20 -1 46 -4 57 -7
11 -2 33 -5 49 -5 l28 -1 -6 -67 c-4 -38 -8 -84 -11 -103 -3 -31 -11 -105 -20
-195 -6 -54 -17 -239 -19 -295 0 -30 -5 -58 -10 -61 -4 -4 -3 -9 2 -13 7 -4
15 10 22 36 6 24 17 63 25 88 16 52 74 271 80 300 2 11 6 24 9 28 3 5 8 24 11
43 3 19 10 50 15 69 18 65 52 215 57 247 5 36 5 36 -147 68 -41 9 -84 19 -95
21 -21 5 -44 10 -85 18 -14 2 -115 23 -225 45 -110 22 -216 43 -235 46 -19 3
-71 13 -115 21 -140 27 -169 29 -162 11z"/>
<path d="M5887 1663 c-1 -1 -38 -4 -82 -7 -193 -15 -319 -26 -455 -42 -25 -2
-63 -7 -85 -9 -22 -2 -65 -7 -95 -11 -30 -4 -63 -6 -73 -6 -16 1 -17 -5 -11
-56 10 -84 12 -97 14 -97 0 0 3 -22 5 -50 3 -27 7 -66 10 -85 3 -19 7 -46 10
-60 2 -14 6 -47 9 -75 4 -27 8 -61 11 -75 6 -37 16 -101 20 -135 2 -16 6 -40
9 -51 4 -19 8 -42 22 -124 2 -14 6 -34 8 -45 3 -11 5 -26 5 -34 1 -13 19 -13
97 3 28 6 95 18 114 20 21 3 64 13 224 48 77 17 147 32 155 33 9 2 16 4 16 5
0 1 9 3 19 5 84 16 147 36 141 45 -4 7 -13 7 -24 0 -10 -5 -21 -7 -24 -4 -8 8
-177 8 -403 0 l-190 -7 -1 28 c0 44 -15 222 -28 338 -4 45 -17 177 -17 185 -1
19 4 27 15 27 26 2 123 13 147 17 14 3 43 7 65 11 22 3 54 8 70 10 17 3 48 8
70 10 22 3 49 7 60 9 11 2 42 7 69 11 28 3 53 8 58 11 10 6 24 -29 31 -76 3
-19 12 -69 21 -110 8 -41 18 -88 21 -105 10 -52 29 -133 54 -229 5 -22 8 -44
5 -48 -3 -4 0 -8 5 -8 6 0 11 -9 11 -21 0 -11 4 -18 8 -15 10 6 8 361 -3 556
-4 74 -8 152 -8 173 -1 20 -4 38 -7 38 -10 2 -91 4 -93 2z"/>
<path d="M3840 720 c8 -5 22 -9 30 -9 10 0 8 3 -5 9 -27 12 -43 12 -25 0z"/>
</g>
</svg>
